<svg xmlns="http://www.w3.org/2000/svg" xmlns:xlink="http://www.w3.org/1999/xlink" viewBox="0 0 1640.02 1674.2"><defs><style>.cls-1{fill:none;}.cls-2{clip-path:url(#clip-path);}.cls-3{fill:#3d3d3d;}</style><clipPath id="clip-path" transform="translate(-0.02 0.08)"><rect class="cls-1" width="1639.96" height="1484.53"/></clipPath></defs><g id="Слой_2" data-name="Слой 2"><g id="main_logo" data-name="main logo"><g class="cls-2"><path class="cls-3" d="M224.54,507a16,16,0,0,1-2.15,1.35c-14.67,5.74-29.41,11.48-44,17.3-1.83.72-2.95.08-4.46-.64-4.39-2.15-8.77-4.54-13.4-6-15-4.7-29.57-2.39-43.84,3.19-10.6,4.15-20.16,10.29-29.73,16.42a108.76,108.76,0,0,0-30.85,30.05A175.17,175.17,0,0,0,27.66,638.4c-7,38.9-6.86,78-2.47,117.18,1.75,15.14,4.94,30,6.21,45.27,2.32,28.3,5.18,56.52,7.82,84.73,3,32.21,6.21,64.33,9,96.53,2.63,29.89,5.42,59.79,7.18,89.76,2.07,36.34,18.65,192.34,20.8,228.69,1.59,26.86,4.38,53.56,6.94,80.34,2.79,28.7,4.78,57.47,5.42,86.33a16.42,16.42,0,0,0,.71,4.78,7.72,7.72,0,0,0,14.43.24,14,14,0,0,0,.8-4.78c.08-3.75.16-7.57,0-11.32-1.6-24.15-3.11-48.38-5-72.62-2.08-25.5-4.79-50.93-6.94-76.44-1-12.11-1.67-24.15-2.15-36.27-.56-13.47-.48-26.94-1-40.33-1.59-42.33-20.4-204.06-24.71-246.23C61,948.55,58.11,912.68,54.6,877c-3.11-31.16-4.94-62.41-9.65-93.42-2.07-13.63-3.26-27.34-4.78-41a365.7,365.7,0,0,1,2.15-94.69c2.63-17.3,7.26-34,15-49.74,7.33-14.83,16.18-28.62,29.09-39.38,1.6-1.35,3.27-2.55,4.63-3.59,3.11,2.87,5.5,5.66,8.37,7.74,6.85,4.86,14.66,6.29,22.95,6.13,8.85-.24,17.14-3.11,25.27-6.29,4.86-1.92,9.57-4.07,15.15-6.38-1,1.51-1.6,2.55-2.24,3.43a93.85,93.85,0,0,1-21,20.72c-4.94,3.51-8,8.21-10.36,13.47-3.27,7.34-2,14.19,3.66,19.93a32.86,32.86,0,0,0,13.48,7.89c8.05,2.63,16.42,3,24.87,2.63,26.62-1.11,52.92-5.58,79.15-10.28,17-3,33.8-7.09,50.61-10.76,11.88-2.63,23.68-5.5,35-10.2,7.17-3,14.27-6.06,19.37-12.2,5.42-6.46,6.13-13.71,1.83-21a35.23,35.23,0,0,0-14.67-13.48c-4.38-2.23-8.84-4.38-13.23-6.61a12.67,12.67,0,0,1-2.47-1.83c21-1.36,36.27-11.24,47.19-28.54a2.62,2.62,0,0,1,.8,0,94,94,0,0,1,47,28.22,27,27,0,0,1,6.05,11.71c2.71,11.24.48,21.84-4,32.13-10.44,24-27.9,41.45-50.7,53.72-20.8,11.24-41.93,21.92-64.8,28.62a21.45,21.45,0,0,0-5.34,2.47,7.66,7.66,0,0,0-3.27,9,7.47,7.47,0,0,0,8,5.26,20.54,20.54,0,0,0,4.3-.88c5.34-1.67,10.61-3.67,15.95-5.1a641.72,641.72,0,0,1,101.23-18.73c14-1.52,28.06-3.11,42.24-2.31,1.2,0,2.4.31,4.39.55-14,11.56-19,25.51-13.95,42.65-10.12,1.11-19.61,1.91-29,3.11q-49.62,6.21-99.24,12.51a66,66,0,0,0-12.44,2.79,7.59,7.59,0,0,0-4.86,8.69c.72,3.67,3.59,6.14,7.73,6.38A32.2,32.2,0,0,0,328,730c24.79-2.79,49.66-5.42,74.45-8.37,16.81-2,33.63-3.75,50.29-6.78a194.76,194.76,0,0,1,49-2.39c1.68.08,3.51-.16,5,1.44-13.87,9.56-24.24,20.8-22.4,39-2.95.79-5.58,1.67-8.29,2.23a377.69,377.69,0,0,1-49.26,6.69c-20.49,1.2-40.89,3.19-61.38,5.1-11.8,1-23.51,2.48-35.23,3.91a21.84,21.84,0,0,0-6.94,2.31,7.79,7.79,0,0,0,2.71,14.59,16.14,16.14,0,0,0,4.39,0c6.53-.56,13.07-1.2,19.61-1.83,24.55-2.32,49.1-4.39,73.57-6.94,12.75-1.27,25.51-2.71,38.34-2.07,1.91.08,3.75.32,6.7.48-15.39,11-24.48,24.63-25.35,43.2-2.63.56-5.26,1.27-8.05,1.67q-42.45,6.35-84.81,12.52c-21.61,3.11-42.65,8.29-62.5,17.29a78,78,0,0,0-18.09,10.77,76.16,76.16,0,0,0-19.93,24.79c-8.77,17.53-13.23,36.1-11.24,55.71,1.52,15.15,3.67,30.29,5.82,45.36,3.67,25.27,31.64,337.49,35.47,362.84q3.83,24.87,7.57,49.58c1.76,11.88,3.19,23.75,4.87,35.55,1.19,8.45,2.55,16.82,3.9,25.27.4,2.63.48,5.26,1.12,7.73a7.89,7.89,0,0,0,8.77,6.22c4.06-.56,6.77-3.91,6.85-8.37,0-.8-.16-1.59-.24-2.47-.95-8.13-1.75-16.34-2.95-24.39q-5.73-39-11.72-77.8c-4.3-27.9-32.76-342.68-36.9-370.57-2.55-17.54-4.86-35.08-6.62-52.69-1.75-18.26,3.19-35.24,12.92-50.62a57.34,57.34,0,0,1,23.67-21c18.49-9,38.26-14,58.43-17.14,28.45-4.38,56.91-8.29,85.37-12.59a259.47,259.47,0,0,0,41.77-9.73c11.24-3.67,21.6-8.93,30-17.46,12.91-13.31,10.6-31.72-5.26-41.45-1.36-.79-2.71-1.59-4.71-2.87,2.24-.71,3.75-1.19,5.26-1.75,8.53-3,17.14-5.74,25.43-9.32a51.16,51.16,0,0,0,19.93-15c7.09-8.93,6.85-19.93-1-28.22a41.6,41.6,0,0,0-8.92-6.85c-7.34-4.23-15.47-6.3-23.76-7.89-1.27-.24-2.63-.64-3.9-1,4.54-4.07,9.16-7.49,13-11.72,9.8-10.84,8.29-25.59-3.19-34.59a50.07,50.07,0,0,0-16.66-8.29,112.23,112.23,0,0,0-32.12-4.71c-24.71-.31-49.18,2.63-73.58,6.38-2.55.4-5.1.72-7.73,1a6.66,6.66,0,0,1,2.63-2.71,120.83,120.83,0,0,0,38.58-39.46c6.7-11.08,12.12-22.64,13.79-35.55,1.84-14.51-.08-28.3-10.12-39.78a108.08,108.08,0,0,0-43-29.65c-19.69-7.65-40.18-9.8-61.06-7.89-10.76,1-20.33,5.26-27.66,13.55-1.12,1.2-2.31,2.31-2.87,2.87-10.36-.72-20-1.51-29.73-2s-19.61-.56-29.66-.8Q212.9,398,185.56,293.18c1.2-.56,2-.88,2.71-1.2,15.15-5.66,27.66-15,38-27.26a131.37,131.37,0,0,0,16.81-25.43c10.92-21.12,17.22-43.68,20.73-67,7.73-51.65,2.87-102.42-10.2-152.64-1.36-5.1-4.55-8-9.49-8.85-6-1-12-2.15-18-2.15-29.34.24-58.27,4.38-87,10.12-14.66,2.87-29.33,6.06-43.84,9.49Q60.93,36.55,26.78,45.36c-6,1.51-11.8,4-17.62,6.37-4.86,2-10,7.57-9,13.31C2,74.93,3.19,84.81,5.1,94.62a380,380,0,0,0,23.51,76.6c11.16,26.3,25.11,50.85,43.37,72.93,12.43,15,26.54,28.22,43.52,38.1,16.1,9.41,33.24,14.83,52.13,13.87a10.25,10.25,0,0,1,2.23.48Q197.24,401.71,224.62,507ZM16.66,66c4.62-1.59,9-3.43,13.55-4.7C57.39,53.65,84.81,46.63,112.47,41c17.22-3.51,34.43-7.25,51.73-10.12,14.59-2.39,29.33-3.75,44-5.42,6.38-.72,12.75-1.2,19.13-1.52,3.43-.16,6.86.16,10.28.32.56,1.44,1,2.47,1.36,3.51,10.36,40.65,14.91,81.86,11.24,123.87-2.23,25.51-7.33,50.3-18,73.73-6.05,13.39-13.71,25.83-24.47,36-20,19-43.12,23.91-69.11,14.51C125.14,271,113.51,263,102.9,253.56c-16.1-14.27-29-31.17-40-49.58C44.16,172.57,31.24,138.86,23.27,103.3,20.88,92.7,19.13,82,17.14,71.42c-.32-1.59-.32-3.19-.56-5.34ZM143.32,601.57c1.91-5.18,5.1-9.16,8.45-13,3.58-4.06,7.49-7.81,11-12,4.46-5.27,9-10.45,12.91-16.11,3.43-4.94,6-10.44,9.48-16.74,36-4.78,73.1-9.8,110.09-14.66.55.48,1,.8,1.19,1.19,3.91,10.13,11.72,16.42,20.88,21.37,5.5,3,11.16,5.66,16.66,8.45,4,2,7.66,4.54,9.65,8.92-.8,3-3.27,4.47-5.82,5.5-8.53,3.35-16.9,7.42-25.83,9.65-28.85,7.09-57.79,13.87-87.28,18.09-16.9,2.39-33.8,5.1-50.85,6a119,119,0,0,1-17.7-.56c-4.7-.48-9.33-1.91-13-6.06Zm335.74,90.79a8.23,8.23,0,0,1-3.11-7.09,21.63,21.63,0,0,1,3.67-12.59A31.48,31.48,0,0,1,499,659.29c4.39-1.12,12.84,3.9,13.64,8.28a10.69,10.69,0,0,1-1.2,6,14,14,0,0,1-3.59,4c-8.37,7.25-18.33,11.32-28.77,14.75ZM162.53,537.17A26.75,26.75,0,0,1,159,539.8c-10.44,5.5-21.12,10.44-32.76,12.91a27.58,27.58,0,0,1-15.07-.48c-2.79-1-5.42-2.15-7.17-5.18,19.29-13.55,42.72-19.37,58.43-9.88ZM459.21,817c.88-2.95,1.27-5.18,2.15-7.25,4.39-10.6,12.12-18.18,22.16-23.44a28.41,28.41,0,0,1,5.1-1.75c3.27-.88,6.14-.64,8.29,2.39s2.71,6.46.64,9.65a32.34,32.34,0,0,1-5.9,6.45c-6.14,5.18-13.39,8.13-20.88,10.68-3.43,1.2-6.94,1.92-11.48,3.11ZM311.35,516.84c2.47-4.54,6-6.93,10.28-8.61,7.41-2.87,27.42-3.82,34.83-1.75,0,.16,0,.4-.08.48-8.21,8.77-17.61,15.06-30.13,15.3C320.83,522.34,316.05,520.35,311.35,516.84ZM501,749c-1.52-3.27-.4-5.9.87-8,6.22-9.81,14.43-16.9,26.63-18.18.48,0,1-.16,1.51-.16,2.39.16,4.71.72,5.74,3.11s-.08,4.15-1.59,5.82c-4.71,5.26-10.68,8.69-17.06,11.48-5.26,2.23-10.68,4-16.1,6Z" transform="translate(-0.02 0.08)"/><path class="cls-3" d="M49.5,139.49a217.23,217.23,0,0,0,15.62,41.93c10,20.17,22.48,38.66,39.06,54.12,12.12,11.24,25.59,20.25,41.85,24.24,19.77,4.86,37.62.87,53-12.52A88.82,88.82,0,0,0,217.93,224c8.84-15.55,13.71-32.37,15.7-50a229.29,229.29,0,0,0,.24-51.18,115,115,0,0,0-3.27-16.34,8.7,8.7,0,0,0-7.41-6.45c-4.55-.72-9.09-1.76-13.71-1.68-17.46.32-34.92.56-52.29,1.84-25.27,1.91-50.46,4.62-75.73,7.25-9.8,1-19.61,2.63-29.25,4.38-6.54,1.2-8.61,4.71-7.18,11C46.31,128.41,48,134,49.5,139.49Z" transform="translate(-0.02 0.08)"/><path class="cls-3" d="M697.23,625.17c-41.93,4.94-77.48,4.22-104.18-7.65-26.71-11.64-46.79-31.33-58.35-60.58s-17.62-65.37-17.62-107.61v-232c0-44.32,5.5-83.14,14.27-115.82C540.28,68.87,555,44,574.55,26.46,594.32,8.85,620.63-.08,656.66-.08c34,0,62.57,8,86.4,24.87S787,65.84,802.13,96.21a354.72,354.72,0,0,1,32.2,101.87q4.3,26.91,7.33,52.93c-30.21-3.83-61.37-6.86-93.9-9.17-1.91-17.61-4.22-35.55-6.77-53.48a364.29,364.29,0,0,0-10.12-48.71c-4.07-14.9-10.53-27.1-18.9-36.27s-21-14.1-37.54-14.74c-16.74-.56-28.3,3.82-35,12.83s-10.44,21.36-11,36.67A377.51,377.51,0,0,0,629.87,190c7.81,90.95,10.84,178.87,10.84,266.31,0,22,1.76,39.78,5,53.33,3.42,13.79,9.8,23.51,18.89,29.65s21.52,8.21,37,7.1c17.78-1.36,30-5.74,37.55-14.35,7.49-8.37,12.43-19.29,14.74-32.84a290.23,290.23,0,0,0,3.75-45.68c.16-17.21.16-34.35,0-51.81,32.92,1.52,64,4.62,93.74,8.61,0,15.06,0,30.21-.56,45.12-.88,33.08-6.62,61.29-16.34,85.76s-25.11,43-46.55,57.16-50.7,22-91.19,26.78l.32.16Z" transform="translate(-0.02 0.08)"/><path class="cls-3" d="M895.71,619C919.06,438.81,924.88,260.17,851.55,0c29.73.16,59.46.4,89,.56C970.87,117,986.5,216.33,992.4,305.61c31.16,6.14,61.37,12.35,91.1,17.93-3.18-93.18-15.7-198.24-43.12-322.34,29.73,0,59.62.39,89.36.39,54.68,309.68,30.29,505.05-.72,683.6-24.07-7.33-48.07-15.22-72.3-23.12,13.55-79.86,24.79-161.89,27.1-255.23-28.85-6.93-58.19-14-88.79-21.2.31,90.23-8.77,171.06-21,251.17-25.27-6.94-51.25-13.08-78.35-17.94h.16Z" transform="translate(-0.02 0.08)"/><path class="cls-3" d="M1209.92,709.34C1241.41,530.15,1270,330.48,1225,19h91c31.49,312.07,1.2,519.87-27.9,704.16a707.87,707.87,0,0,1-78-13.87h-.16Z" transform="translate(-0.02 0.08)"/><path class="cls-3" d="M1353.4,723.21c24.4-193,52.53-409.63,32.84-719.94,20.65,0,41.21-.16,61.86-.4,45.91,169.86,73.49,297.56,110.64,408.68,5-128.1,8.77-263.29,7.73-410.27,24.39-.4,48.94-.8,73.49-1.36V655.14c-26.38,11.56-51.65,21.36-75.88,29.65-45-110-73.34-221.27-103.86-359-6.62,145.63-19.85,272.53-31.33,391.77a586.32,586.32,0,0,1-75.65,5.18l.16.4Z" transform="translate(-0.02 0.08)"/><path class="cls-3" d="M656.66,1484.53c-36,0-64.49-12-84.74-31.89-20.4-20-34.51-44.63-42.48-75.8C521.23,1345.75,517,1310.2,517,1268V1036.32c0-44.32,4.94-85.53,15.47-122.76s29.17-70.06,54.92-96.21c25.58-26.14,60.26-44.64,100-52.69,37.47-7.25,63.77-2.71,81.23,9.73s27.74,31.88,32,57.47,4.07,56.11,0,92c-1.91,17.54-3.74,35.32-5.66,53.41a545.69,545.69,0,0,0-79.79,10.12c1.6-18.89,3.19-37.62,4.94-56,1.6-17.94,2.48-33.8,2.48-47.91s-2.71-24.79-8.37-31.88c-5.66-7.26-16.34-9.33-32.68-5.5C665,850,652.35,858.16,644,869.4c-8.37,11.48-14.35,25.35-17.38,41.61a390.14,390.14,0,0,0-6.21,54c-5,94.14-9.57,192.19-12,296.61-.56,26.14.4,47.74,3,64.48s7.49,29.42,14.75,37.39,17.21,11.48,29.81,10c14.59-1.75,24.87-8.61,30.77-21s9.72-28.22,11.39-47.51,2.71-40.25,3.19-63c.56-23.12,1.28-45.6,2.16-67.76a745.56,745.56,0,0,1,79.23-10.52c-.72,19.85-1.2,40.26-1.44,61.06-.56,46.15-3.5,89.67-9.56,129.05-6.22,39.3-17.62,71.74-35.71,95.26s-44.56,35.15-79.39,34.91v.4Z" transform="translate(-0.02 0.08)"/><path class="cls-3" d="M864.54,1464.36c-30.53-311.91-1.28-519.07,26.62-703A710.41,710.41,0,0,1,966,775.58c-12.67,74.93-24.79,153.29-31.48,241.84,27.65,4,55,9.49,82.81,15.95,4.71-85.53,16.27-161.42,28.94-234.67,23.83,7.57,47.51,15.38,71.58,23.11-29.25,173.93-46.15,356.47,20.41,643.67-29.34-.16-58.91-.4-88.24-.56-25.83-136.23-35.4-249.5-35.24-349.05-28.53-5.34-56.59-9.65-85-12.76-3,103.23,2.15,221,21.84,361.41H864.14Z" transform="translate(-0.02 0.08)"/><path class="cls-3" d="M1216.78,1464.76c-72.54-273.41-60.82-452-33.56-627.32,25.19,6.69,51.1,12.59,78.28,17.3-23.28,178.31-29.1,354.63,44,610.74-29.65-.16-59.23-.56-88.72-.8Z" transform="translate(-0.02 0.08)"/><path class="cls-3" d="M1386.72,1464.12c-66.24-241.52-64.88-419.59-46.31-602.61,20.33,1.36,41.53,1.67,63.61,1.12,33.24,105.93,83,213.94,138.94,330.4-5.27-117.34-4.55-231.88-1.12-347.94a1010.06,1010.06,0,0,0,98.2-26.78V1465.4H1581c-54.68-130.33-121.24-256.43-168.43-373.61,2.79,115.5,16.66,236,49.58,373-25.19,0-50.14-.4-75.17-.56l-.16-.16Z" transform="translate(-0.02 0.08)"/></g><path class="cls-3" d="M52,1672.89v-59.33H74.67a17.18,17.18,0,0,1,8.28,2,14.7,14.7,0,0,1,5.81,5.31,13.92,13.92,0,0,1,2.14,7.62,14.8,14.8,0,0,1-2.64,8.61,13.88,13.88,0,0,1-7,5.32l-.17-2a18.64,18.64,0,0,1,9.27,5.93,15.35,15.35,0,0,1,3.46,10.22,16.39,16.39,0,0,1-2.26,8.78,15,15,0,0,1-6.18,5.6,20,20,0,0,1-9,1.94Zm4.78-4.66H74.83a17.58,17.58,0,0,0,7.09-1.36,11.42,11.42,0,0,0,5-3.91,10.24,10.24,0,0,0,1.86-6.18,12.62,12.62,0,0,0-1.69-6.47,12.27,12.27,0,0,0-4.49-4.61,12,12,0,0,0-6.39-1.73H56.74Zm0-28.84H74.62a11.31,11.31,0,0,0,5.65-1.44,11.14,11.14,0,0,0,4.12-3.91,10.81,10.81,0,0,0,1.52-5.73,9.26,9.26,0,0,0-3.25-7.38,11.77,11.77,0,0,0-8-2.8H56.74Zm136.33,33.5,21-59.33H220l21,59.33h-5L215.78,1616h2.39l-20.07,56.86Zm8.7-14.92v-4.49h30.49V1658Zm141.78,14.92v-59.33h22.38c.57,0,1.19,0,1.85.08a13.66,13.66,0,0,1,2.14.25,16.17,16.17,0,0,1,7.63,3.21,16,16,0,0,1,4.9,6.26,20,20,0,0,1,1.69,8.29,19,19,0,0,1-3.5,11.41,15.51,15.51,0,0,1-9.77,6.18l-1.36.53H348.29v23.12Zm36.55,0-11.7-24.15,4.41-2.22,12.85,26.37Zm-31.81-27.77h17.55c.5,0,1.06,0,1.69-.08s1.32-.14,2-.25a11.11,11.11,0,0,0,5.36-2.6,12.44,12.44,0,0,0,3.21-4.73,15.81,15.81,0,0,0,1.07-5.81,15.45,15.45,0,0,0-1.07-5.77,12.1,12.1,0,0,0-3.21-4.7,11,11,0,0,0-5.36-2.64,16.88,16.88,0,0,0-2-.29c-.63,0-1.19-.08-1.69-.08H348.29Zm277,29q-8.87,0-14.88-3.92a24.48,24.48,0,0,1-9.06-10.92,43.86,43.86,0,0,1,0-32.14,24.24,24.24,0,0,1,9.06-10.87q6-4,14.88-4,10.34,0,16.77,5.36a26.58,26.58,0,0,1,8.77,14.34l-4.9,1.19a22,22,0,0,0-7.09-11.82c-3.43-3-8-4.41-13.55-4.41a21,21,0,0,0-12.16,3.33,20.64,20.64,0,0,0-7.29,9.28,36.29,36.29,0,0,0-2.47,13.63,34.65,34.65,0,0,0,2.35,13.64,20.63,20.63,0,0,0,7.37,9.27,21.17,21.17,0,0,0,12.2,3.34q8.4,0,13.55-4.41a22.19,22.19,0,0,0,7.09-11.82l4.9,1.19a26.58,26.58,0,0,1-8.77,14.34Q635.62,1674.13,625.28,1674.13Zm124-1.24,21-59.33h5.89l21,59.33h-5L772,1616h2.39l-20.07,56.86ZM758,1658v-4.49h30.49V1658Zm153.19,14.92v-54.72H889.92v-4.61h47.26v4.61H915.92v54.72Zm127.8,0v-59.33h36.67v4.61h-31.94v22.54h27v4.61h-27v23h31.94v4.62Zm141.77,0v-59.33h22.37c.57,0,1.19,0,1.85.08a13.66,13.66,0,0,1,2.14.25,16.17,16.17,0,0,1,7.63,3.21,16,16,0,0,1,4.9,6.26,19.88,19.88,0,0,1,1.69,8.29,19,19,0,0,1-3.5,11.41,15.49,15.49,0,0,1-9.77,6.18l-1.36.53h-21.22v23.12Zm36.54,0-11.7-24.15,4.41-2.22,12.85,26.37Zm-31.81-27.77H1203c.49,0,1,0,1.68-.08s1.32-.14,2-.25a11.06,11.06,0,0,0,5.36-2.6,12.55,12.55,0,0,0,3.21-4.73,15.81,15.81,0,0,0,1.07-5.81,15.45,15.45,0,0,0-1.07-5.77,12.21,12.21,0,0,0-3.21-4.7,10.94,10.94,0,0,0-5.36-2.64,16.88,16.88,0,0,0-2-.29c-.63,0-1.19-.08-1.68-.08h-17.56Zm142.45,27.77v-59.33h4.74v59.33Zm112.3,0v-59.33H1445l34.36,50.88v-50.88h4.78v59.33h-4.78l-34.36-51v51Zm174.19,1.24a28.26,28.26,0,0,1-11.5-2.23,23,23,0,0,1-8.4-6.3,28.12,28.12,0,0,1-5.2-9.77,42.6,42.6,0,0,1-1.77-12.61,39.24,39.24,0,0,1,3.09-16.11,24.66,24.66,0,0,1,9.11-10.83q6-3.87,14.67-3.88,9,0,14.75,4.21a22.24,22.24,0,0,1,8.16,11l-4.7,1.44a18.11,18.11,0,0,0-6.72-8.73,19.17,19.17,0,0,0-11.37-3.34,20.94,20.94,0,0,0-12.15,3.34,20.09,20.09,0,0,0-7.26,9.23,37.08,37.08,0,0,0-2.51,13.63,34.83,34.83,0,0,0,2.35,13.64,20.7,20.7,0,0,0,7.37,9.27,21.19,21.19,0,0,0,12.2,3.34q7,0,11.37-2.72a16.55,16.55,0,0,0,6.6-7.75,31.13,31.13,0,0,0,2.34-11.74H1620.1v-4.32h19.7a17.19,17.19,0,0,1,.12,2c0,.66,0,1.17,0,1.53a34.52,34.52,0,0,1-2.76,14.13,21.64,21.64,0,0,1-8.4,9.89C1625,1672.91,1620.24,1674.13,1614.42,1674.13Z" transform="translate(-0.02 0.08)"/></g></g></svg>